# xmcd CD database file
#
# Track frame offsets:
#	150
#	18117
#	25682
#	35516
#	50090
#	64063
#	87179
#	105717
#	119781
#	134362
#
# Disc length: 2000 seconds
#
# Revision: 1
# Processed by: cddbd v1.4PL0 Copyright (c) Steve Scherf et al.
# Submitted via: CDex 1.50Beta7
#
DISCID=8407ce0a
DTITLE=Jim Stone - The Minstrel
DYEAR=2001
DGENRE=New Age
TTITLE0=Isaiah's Lullabye
TTITLE1=Sonata Of Life - Prelude
TTITLE2=Sonata Of Life - The Awakening
TTITLE3=Sonata Of Life - The New Life
TTITLE4=Tribulation
TTITLE5=Inspiration
TTITLE6=The Minstrel
TTITLE7=A Roll Of The Dice
TTITLE8=Nothing In This Life
TTITLE9=The End
EXTD=YEAR: 2001
EXTT0=
EXTT1=
EXTT2=
EXTT3=
EXTT4=
EXTT5=
EXTT6=
EXTT7=
EXTT8=
EXTT9=
PLAYORDER=
